<?xml version="1.0" encoding="UTF-8"?>
<svg width="1000px" height="1000px" viewBox="0 0 1000 1000" version="1.1" xmlns="http://www.w3.org/2000/svg" xmlns:xlink="http://www.w3.org/1999/xlink">
    <!-- Generator: Sketch 46.2 (44496) - http://www.bohemiancoding.com/sketch -->
    <title>Group 3</title>
    <desc>Created with Sketch.</desc>
    <defs></defs>
    <g id="Page-1" stroke="none" stroke-width="1" fill="none" fill-rule="evenodd">
        <g id="Group-3">
            <rect id="Rectangle-2" fill="#FFFFFF" x="0" y="0" width="1000" height="1000"></rect>
            <g id="搜索_熊掌_66icon" fill="#3388FF">
                <g id="logo" transform="translate(121.212121, 90.909091)">
                    <path d="M281.391672,253.227889 C330.249408,253.227889 369.727536,197.170406 369.727536,127.855382 C369.727536,58.6000085 330.249408,2.55743903 281.391672,2.55743903 C232.593774,2.55743903 193.010929,58.6000085 193.010929,127.855382 C193.010929,197.170406 232.593774,253.227889 281.391672,253.227889" id="Fill-1"></path>
                    <path d="M491.804559,261.514971 C557.132708,269.955656 599.124032,200.47659 607.471435,147.819242 C615.983392,95.2513717 573.842473,34.1384261 527.617609,23.6397649 C481.273069,13.0516264 423.424672,87.0343798 418.158927,135.277518 C411.860976,194.24301 426.640965,253.133938 491.804559,261.514971" id="Fill-3"></path>
                    <path d="M117.173729,429.982693 C205.62927,411.028434 193.601829,305.639174 190.953997,282.583875 C186.600782,247.061417 144.699215,185.00896 87.7932658,189.900382 C16.1970852,196.298003 5.74039269,299.405594 5.74039269,299.405594 C-3.95336515,347.082043 28.9126626,448.936952 117.173729,429.982693" id="Fill-5"></path>
                    <path d="M750.702691,349.92891 C750.702691,324.755984 729.729468,248.879296 651.865256,248.879296 C573.851448,248.879296 563.439634,320.47599 563.439634,371.090274 C563.439634,419.407976 567.523579,486.843979 664.401319,484.696526 C761.308978,482.578898 750.702691,375.265878 750.702691,349.92891" id="Fill-7"></path>
                    <path d="M211.108936,613.306617 C208.520942,620.718314 202.731614,639.672573 207.728088,656.181121 C217.631279,693.194867 249.883967,694.865109 249.883967,694.865109 L296.198588,694.865109 L296.198588,581.959762 L246.577917,581.959762 C224.288258,588.59599 213.517416,605.880007 211.108936,613.306617" id="Fill-9"></path>
                    <path d="M563.358853,739.469506 L431.027091,739.469506 C379.760875,726.286528 377.322476,689.973687 377.322476,689.973687 L377.322476,544.066157 L431.027091,543.20121 L431.027091,674.344998 C434.303222,688.303446 451.731043,690.838634 451.731043,690.838634 L506.27339,690.838634 L506.27339,544.066157 L563.358853,544.066157 L563.358853,739.469506 Z M349.168691,740.259888 L234.189952,740.259888 C184.524403,730.402481 164.74794,696.595002 162.234744,690.838634 C159.766426,684.992788 145.719453,657.83645 153.169285,611.651288 C174.636172,542.410828 235.850457,537.429929 235.850457,537.429929 L297.064743,537.429929 L297.064743,462.4331 L349.168691,463.223483 L349.168691,740.259888 Z M651.859272,571.073366 C651.859272,571.073366 550.80783,493.138702 491.807551,408.910806 C411.863968,284.716416 298.261503,335.256136 260.279325,398.412145 C222.461702,461.568154 163.506302,501.519736 155.099061,512.092961 C146.631982,522.517058 33.0743963,583.615091 58.2811586,695.252844 C83.4879209,806.830945 172.018259,804.668579 172.018259,804.668579 C172.018259,804.668579 237.27161,811.081113 312.996613,794.18483 C388.691698,777.452589 453.91513,798.360434 453.91513,798.360434 C453.91513,798.360434 630.796292,857.415404 679.175324,743.719675 C727.539397,630.038858 651.859272,571.073366 651.859272,571.073366 L651.859272,571.073366 Z" id="Fill-11"></path>
                </g>
            </g>
        </g>
    </g>
</svg>