<svg t="1630925938068" class="icon" viewBox="0 0 1024 1024" version="1.1" xmlns="http://www.w3.org/2000/svg" p-id="3027" width="200" height="200"><path d="M748.16 533.930667l-29.696-76.629334c0-0.896 0.426667-16 0.426667-23.808C718.848 302.421333 659.029333 170.666667 512 170.666667s-206.848 131.754667-206.848 262.826666c0 7.808 0.384 22.912 0.426667 23.808l-29.696 76.629334c-8.106667 21.973333-16.213333 44.8-22.058667 64.426666-28.032 93.397333-18.944 132.053333-12.032 132.906667 14.848 1.834667 57.770667-70.314667 57.770667-70.314667 0 41.813333 20.821333 96.341333 65.792 135.68-16.810667 5.418667-37.461333 13.653333-50.688 23.765334-11.946667 9.130667-10.453333 18.389333-8.277334 22.186666 9.386667 16.426667 161.706667 10.453333 205.653334 5.333334 43.946667 5.12 196.224 11.093333 205.653333-5.376 2.133333-3.754667 3.626667-13.013333-8.277333-22.144-13.269333-10.112-33.92-18.346667-50.773334-23.722667 45.013333-39.381333 65.792-93.952 65.792-135.722667 0 0 42.965333 72.149333 57.813334 70.314667 6.912-0.853333 16.128-39.594667-12.074667-132.949333-5.973333-19.754667-13.866667-42.410667-22.016-64.384z m43.562667 351.018666c-15.914667 27.818667-35.541333 38.058667-61.354667 45.098667a209.493333 209.493333 0 0 1-33.877333 5.888c-18.773333 1.92-42.069333 2.773333-68.821334 2.730667a1417.813333 1417.813333 0 0 1-115.626666-4.949334c-29.525333 2.773333-76.16 4.864-115.626667 4.949334a685.653333 685.653333 0 0 1-68.864-2.730667 210.261333 210.261333 0 0 1-33.834667-5.888c-25.813333-6.997333-45.44-17.28-61.44-45.184a97.024 97.024 0 0 1-10.197333-70.485333c-25.258667-5.632-42.709333-20.608-54.570667-38.869334a103.68 103.68 0 0 1-13.184-30.293333 171.861333 171.861333 0 0 1-4.949333-47.189333c0.554667-33.493333 7.978667-75.178667 22.698667-124.245334 5.973333-19.882667 13.952-43.008 24.234666-70.613333l23.594667-61.013333a661.162667 661.162667 0 0 1-0.085333-8.661334C219.818667 239.146667 323.754667 85.333333 512 85.333333c188.288 0 292.181333 153.813333 292.181333 348.16l-0.042666 8.661334 23.594666 61.013333 0.426667 1.109333c9.6 25.856 17.621333 49.194667 23.722667 69.376 14.848 49.066667 22.272 90.837333 22.826666 124.416 0.298667 17.365333-1.28 33.109333-5.034666 47.274667-2.816 10.496-6.869333 20.48-13.226667 30.208-11.776 18.218667-29.184 33.109333-54.485333 38.826667 5.546667 23.637333 2.346667 48.64-10.24 70.570666z" p-id="3028" fill="#8992c8"></path></svg>