<svg t="1630925985489" class="icon" viewBox="0 0 1024 1024" version="1.1" xmlns="http://www.w3.org/2000/svg" p-id="3230" width="200" height="200"><path d="M792.490667 585.002667a38.826667 38.826667 0 0 0 38.314666-38.314667c0-21.248-17.024-38.314667-38.314666-38.314667s-38.314667 17.066667-38.314667 38.314667c0 21.333333 17.066667 38.314667 38.314667 38.314667z m-188.8 0a38.826667 38.826667 0 0 0 38.314666-38.314667c0-21.248-17.066667-38.314667-38.314666-38.314667-21.333333 0-38.314667 17.066667-38.314667 38.314667 0 21.333333 17.024 38.314667 38.314667 38.314667z m280.192 215.04a14.805333 14.805333 0 0 0-7.338667 15.786666c0 2.048 0 4.138667 1.066667 6.272 4.181333 17.792 12.544 46.122667 12.544 47.189334 0 3.114667 1.066667 5.205333 1.066666 7.338666a9.386667 9.386667 0 0 1-9.429333 9.386667c-2.133333 0-3.157333-1.024-5.248-2.048l-61.824-35.669333a34.090667 34.090667 0 0 0-14.677333-4.181334c-3.114667 0-6.272 0-8.362667 1.024-29.354667 8.405333-59.733333 12.586667-92.202667 12.586667-156.16 0-281.898667-104.832-281.898666-234.88 0-130.005333 125.738667-234.88 281.898666-234.88 156.117333 0 281.856 104.874667 281.856 234.88 0 70.272-37.717333 134.229333-97.450666 177.237333zM711.381333 345.557333a388.48 388.48 0 0 0-11.946666-0.213333c-178.090667 0-324.522667 122.026667-324.522667 277.546667 0 23.637333 3.413333 46.506667 9.728 68.266666h-3.797333a425.088 425.088 0 0 1-110.250667-15.701333c-3.157333-1.066667-6.314667-1.066667-9.472-1.066667a35.498667 35.498667 0 0 0-17.834667 5.248l-74.581333 42.88c-2.133333 1.066667-4.224 2.133333-6.314667 2.133334a11.648 11.648 0 0 1-11.52-11.52c0-3.157333 1.024-5.248 2.090667-8.405334 1.024-1.024 10.496-35.584 15.744-56.490666 0-2.133333 1.024-5.248 1.024-7.338667a23.722667 23.722667 0 0 0-9.429333-18.858667C87.808 570.709333 42.666667 494.336 42.666667 409.514667 42.666667 253.653333 194.986667 128 381.866667 128c160.64 0 295.68 92.544 329.514666 217.514667z m-219.904 17.834667c24.448 0 43.776-20.352 43.776-43.776 0-24.448-19.328-43.776-43.776-43.776s-43.776 19.328-43.776 43.776 19.328 43.776 43.776 43.776z m-224.426666 0c24.448 0 43.818667-20.352 43.818666-43.776 0-24.448-19.370667-43.776-43.818666-43.776-24.405333 0-43.776 19.328-43.776 43.776s19.370667 43.776 43.776 43.776z" p-id="3231" fill="#8992c8"></path></svg>