<svg t="1630931109441" class="icon" viewBox="0 0 1024 1024" version="1.1" xmlns="http://www.w3.org/2000/svg" p-id="3286" width="200" height="200"><path d="M369.792 491.136a54.442667 54.442667 0 0 1-54.826667-54.826667c0-30.634667 24.192-54.869333 54.826667-54.869333 30.592 0 54.826667 24.234667 54.826667 54.869333 0 30.592-24.234667 54.826667-54.826667 54.826667z m284.416 0a54.442667 54.442667 0 0 1-54.826667-54.826667c0-30.634667 24.234667-54.869333 54.826667-54.869333 30.634667 0 54.826667 24.234667 54.826667 54.869333 0 30.592-24.192 54.826667-54.826667 54.826667z m-363.093333 328.704l30.506666-18.602667a170.666667 170.666667 0 0 1 115.413334-22.869333c9.045333 1.408 16.469333 2.517333 22.186666 3.242667 17.322667 2.304 34.986667 3.456 52.778667 3.456 188.586667 0 337.066667-128.938667 337.066667-281.6S700.586667 221.866667 512 221.866667s-337.066667 128.938667-337.066667 281.6c0 58.282667 21.333333 114.048 61.098667 161.322666 2.048 2.432 5.12 5.845333 9.130667 10.026667a170.666667 170.666667 0 0 1 46.976 132.352l-1.066667 12.672z m-26.88 116.352a42.666667 42.666667 0 0 1-65.152-39.68l8.021333-96.426667a85.333333 85.333333 0 0 0-23.466667-66.176A298.368 298.368 0 0 1 170.666667 719.701333c-50.944-60.629333-81.066667-135.381333-81.066667-216.234666 0-202.666667 189.098667-366.933333 422.4-366.933334s422.4 164.266667 422.4 366.933334-189.098667 366.933333-422.4 366.933333c-21.76 0-43.093333-1.408-63.957333-4.181333a1007.36 1007.36 0 0 1-24.277334-3.584 85.333333 85.333333 0 0 0-57.728 11.434666l-101.845333 62.122667z" p-id="3287" fill="#8992c8"></path></svg>