<svg t="1630926146565" class="icon" viewBox="0 0 1024 1024" version="1.1" xmlns="http://www.w3.org/2000/svg" p-id="2671" width="200" height="200"><path d="M251.008 795.861333c-12.8-8.533333-23.808-19.413333-36.693333-34.816a2146.986667 2146.986667 0 0 1-19.882667-24.704c-19.754667-24.533333-32.213333-35.84-45.098667-40.490666a42.666667 42.666667 0 0 1 28.842667-80.341334c32.085333 11.52 53.802667 31.36 83.072 67.754667-4.010667-4.992 14.506667 18.218667 18.474667 22.997333 8.106667 9.685333 14.08 15.573333 18.773333 18.688 8.704 5.845333 25.045333 8.362667 49.066667 5.973334 0.981333-16.298667 4.010667-32.128 8.618666-46.72C229.546667 653.226667 157.866667 571.562667 157.866667 411.306667c0-52.906667 15.786667-100.522667 45.141333-140.458667-9.301333-38.144-7.893333-84.266667 12.885333-136.192a42.666667 42.666667 0 0 1 26.88-24.832c3.456-1.024 5.418667-1.493333 8.874667-2.005333 34.261333-5.248 82.645333 7.253333 145.706667 46.762666A500.522667 500.522667 0 0 1 512 141.44c38.912 0 77.568 4.437333 114.517333 13.141333 63.018667-39.808 111.488-52.309333 146.005334-46.762666 3.626667 0.554667 6.698667 1.28 9.301333 2.133333a42.666667 42.666667 0 0 1 26.282667 24.746667c20.778667 51.882667 22.186667 98.005333 12.885333 136.106666 29.482667 39.936 45.141333 87.253333 45.141333 140.501334 0 160.298667-71.424 241.706667-198.058666 272.725333 5.333333 17.706667 8.106667 37.504 8.106666 58.88a12820.992 12820.992 0 0 1-0.512 115.882667 42.666667 42.666667 0 0 1-0.810666 83.541333c-48.597333 9.728-84.608-22.698667-84.608-65.066667l0.085333-19.029333 0.213333-30.08c0.213333-30.208 0.298667-57.088 0.298667-85.248 0-29.738667-7.808-49.152-18.133333-58.026667-28.202667-24.32-13.909333-70.613333 23.04-74.752 126.592-14.208 185.045333-63.232 185.045333-198.826666 0-40.746667-13.312-74.410667-38.954667-102.570667a42.666667 42.666667 0 0 1-8.106666-44.586667c7.082667-17.664 10.112-40.832 4.096-68.864l-0.426667 0.128c-20.949333 5.930667-47.36 18.773333-79.274667 40.490667a42.666667 42.666667 0 0 1-35.541333 5.76A410.709333 410.709333 0 0 0 512 226.773333c-37.973333 0-75.605333 5.077333-110.592 14.933334a42.666667 42.666667 0 0 1-35.413333-5.717334c-32.085333-21.632-58.624-34.432-79.701334-40.405333-6.144 27.861333-3.114667 50.944 3.925334 68.565333a42.666667 42.666667 0 0 1-8.064 44.586667C256.682667 336.64 243.2 370.944 243.2 411.306667c0 135.338667 58.496 184.661333 184.405333 198.826666 36.906667 4.138667 51.242667 50.218667 23.210667 74.581334-8.192 7.168-18.304 31.232-18.304 58.197333v134.4c0 42.069333-35.626667 73.6-83.626667 65.194667a42.666667 42.666667 0 0 1-1.706666-83.712v-42.24c-38.826667 2.602667-70.912-3.754667-96.170667-20.693334z" p-id="2672" fill="#8992c8"></path></svg>