<svg t="1630932355800" class="icon" viewBox="0 0 1024 1024" version="1.1" xmlns="http://www.w3.org/2000/svg" p-id="7888" width="200" height="200"><path d="M256 405.333333c0 98.133333 85.333333 213.333333 256 345.6 170.666667-132.266667 256-247.466667 256-345.6C768 345.6 721.066667 298.666667 661.333333 298.666667S554.666667 345.6 554.666667 405.333333h-85.333334C469.333333 345.6 422.4 298.666667 362.666667 298.666667S256 345.6 256 405.333333z m-85.333333 0C170.666667 298.666667 256 213.333333 362.666667 213.333333c59.733333 0 115.2 29.866667 149.333333 72.533334 34.133333-42.666667 89.6-72.533333 149.333333-72.533334C768 213.333333 853.333333 298.666667 853.333333 405.333333c0 140.8-115.2 290.133333-341.333333 448-226.133333-157.866667-341.333333-307.2-341.333333-448z" fill="#8992c8" p-id="7889"></path></svg>