<svg t="1630925851241" class="icon" viewBox="0 0 1024 1024" version="1.1" xmlns="http://www.w3.org/2000/svg" p-id="2820" width="200" height="200"><path d="M785.408 716.373333c-92.714667-40.533333-158.72-70.229333-197.973333-89.002666-59.733333 72.362667-122.538667 116.053333-216.746667 116.053333S213.333333 685.397333 220.842667 614.058667c5.12-46.762667 37.205333-123.221333 176.128-109.909334 73.386667 6.826667 106.837333 20.48 166.912 40.277334 15.36-28.330667 28.330667-59.733333 37.888-92.842667H336.213333v-26.282667h131.072V378.197333H307.2v-29.013333h160.085333V281.258667s1.365333-10.581333 13.312-10.581334H546.133333v78.848h170.666667v29.013334h-170.666667v47.104h139.264a529.493333 529.493333 0 0 1-56.32 141.653333c21.76 7.765333 89.472 28.842667 203.093334 63.274667a341.333333 341.333333 0 1 0-46.762667 85.845333zM512 938.666667C276.352 938.666667 85.333333 747.648 85.333333 512S276.352 85.333333 512 85.333333s426.666667 191.018667 426.666667 426.666667-191.018667 426.666667-426.666667 426.666667z m-152.234667-240.298667c61.44 0 120.490667-37.205333 168.96-100.352-68.608-33.109333-125.610667-49.493333-189.44-49.493333-55.637333 0-84.650667 34.133333-89.770666 60.416-5.12 26.282667 10.581333 89.429333 110.250666 89.429333z" p-id="2821" fill="#8992c8"></path></svg>